<svg width="137" height="62" viewBox="0 0 137 62" fill="none" xmlns="http://www.w3.org/2000/svg">
<path fill-rule="evenodd" clip-rule="evenodd" d="M51.9058 15.2751C50.9339 15.2751 50.8367 1.60279 51.9058 0.653327C52.2945 0.27354 52.6833 1.89713 52.8777 4.2613L53.1692 8.62886L56.7653 4.92593C63.2771 -1.72034 73.968 -1.6254 80.8686 5.11583C88.741 12.8065 89.0326 23.5355 81.7433 32.9352C76.9809 39.0118 67.0675 41.5754 58.0288 39.0118C50.7395 37.0179 47.435 29.6121 52.2945 26.289C55.2102 24.2951 56.5709 24.39 58.9035 26.6687C61.6248 29.3273 61.4305 32.9352 58.4175 34.8342C55.4046 36.7331 55.599 37.0179 60.7501 38.1573C68.7197 39.8663 73.6765 35.4988 75.0371 25.3395C75.7175 20.6871 75.1343 20.0225 72.3158 22.586C70.7607 23.9153 69.9832 24.0102 65.3181 22.8709C62.4023 22.2062 59.0979 21.9214 58.0288 22.2062C55.1131 22.9658 55.5018 20.877 58.8063 17.7437C61.2361 15.465 62.208 15.1802 65.1237 15.6549C66.2001 15.8127 67.6342 16.0577 69.0134 16.2934C70.1246 16.4834 71.2002 16.6672 72.0242 16.7943C75.1343 17.364 75.4259 17.1741 75.4259 15.1802C75.4259 11.3823 73.5793 6.25519 71.5383 4.07141C66.9703 -0.675928 58.126 2.74216 54.7243 10.6227C53.558 13.1863 52.2945 15.2751 51.9058 15.2751ZM85.145 18.4084C85.145 11.857 82.9096 7.77434 77.4669 4.16636C72.8017 1.03311 72.3158 1.4129 74.6484 6.44508C76.2034 9.86316 76.6894 12.9015 76.6894 19.6427C76.7866 27.3334 76.3978 29.0424 74.2596 33.2201C71.4411 38.4422 72.2186 38.8219 77.9529 34.6443C82.4236 31.4161 85.145 25.3395 85.145 18.4084ZM71.7327 20.9719C73.7737 19.4528 73.6765 19.3578 68.8169 17.8387C65.1252 16.6112 63.953 16.1394 63.0078 16.4233C62.4175 16.6005 61.9158 17.0723 60.9445 17.8387C58.8315 19.5276 58.9015 19.5475 64.0622 21.0138L64.249 21.0669C69.3029 22.586 69.6917 22.4911 71.7327 20.9719ZM58.9035 32.4605C60.167 30.0868 60.167 29.8969 58.3203 28.1879C55.599 25.4344 51.1574 26.8586 51.1282 30.4666C51.1282 34.2645 57.0569 35.6887 58.9035 32.4605ZM1.80923 55.092V56.296H7.78723C7.70323 57.3973 7.3159 58.27 6.62524 58.914C5.93457 59.558 5.0759 59.88 4.04923 59.88C3.1439 59.88 2.28057 59.6233 1.45924 59.11L0.969238 60.258C1.90257 60.846 2.9759 61.14 4.18923 61.14C5.7479 61.14 6.99857 60.6687 7.94124 59.726C8.89323 58.774 9.36923 57.4953 9.36923 55.89C9.36923 54.2847 8.90257 53.0107 7.96924 52.068C7.0359 51.116 5.7759 50.64 4.18923 50.64C2.9759 50.64 1.90257 50.934 0.969238 51.522L1.45924 52.67C2.28057 52.1567 3.1439 51.9 4.04923 51.9C5.0479 51.9 5.8739 52.1893 6.52724 52.768C7.1899 53.3373 7.5959 54.112 7.74523 55.092H1.80923ZM12.5767 54.952V50.78H11.0367V61H12.5767V56.156H17.3367V61H18.8767V50.78H17.3367V54.952H12.5767ZM22.7075 54.952V52.04H27.3275V50.78H21.1675V61H27.3275V59.74H22.7075V56.156H27.0475V54.952H22.7075ZM31.02 61V57.15C31.552 57.1967 32.0653 57.22 32.56 57.22C35.1733 57.22 36.48 56.0767 36.48 53.79C36.48 52.782 36.1487 52.0073 35.486 51.466C34.8233 50.9153 33.848 50.64 32.56 50.64C31.4773 50.64 30.4507 50.71 29.48 50.85V61H31.02ZM32.42 56.016C31.9533 56.016 31.4867 55.9787 31.02 55.904V51.97C31.4213 51.9047 31.888 51.872 32.42 51.872C33.26 51.872 33.8947 52.0493 34.324 52.404C34.7533 52.7493 34.968 53.258 34.968 53.93C34.968 54.602 34.7487 55.12 34.31 55.484C33.8714 55.8387 33.2413 56.016 32.42 56.016ZM39.6896 61V52.11H44.0996V50.78H38.0796V61H39.6896ZM50.392 50.64C48.8613 50.64 47.6386 51.116 46.724 52.068C45.8093 53.02 45.352 54.294 45.352 55.89C45.352 57.486 45.8093 58.76 46.724 59.712C47.6386 60.664 48.8613 61.14 50.392 61.14C51.9226 61.14 53.1453 60.664 54.06 59.712C54.9746 58.76 55.432 57.486 55.432 55.89C55.432 54.294 54.9746 53.02 54.06 52.068C53.1453 51.116 51.9226 50.64 50.392 50.64ZM50.392 59.88C49.3466 59.88 48.5066 59.5253 47.872 58.816C47.2373 58.0973 46.92 57.122 46.92 55.89C46.92 54.658 47.2373 53.6873 47.872 52.978C48.5066 52.2593 49.3466 51.9 50.392 51.9C51.4373 51.9 52.2773 52.2593 52.912 52.978C53.5466 53.6873 53.864 54.658 53.864 55.89C53.864 57.122 53.5466 58.0973 52.912 58.816C52.2773 59.5253 51.4373 59.88 50.392 59.88ZM58.7072 61V52.11H63.1172V50.78H57.0972V61H58.7072ZM69.6196 50.78H67.9395L64.2995 61H65.8956L66.7775 58.284H70.7255L71.6075 61H73.2596L69.6196 50.78ZM70.3475 57.08H67.1555L68.7375 52.18H68.7655L70.3475 57.08ZM79.141 59.39C78.7303 59.7167 78.1423 59.88 77.377 59.88C76.4903 59.88 75.557 59.6093 74.577 59.068L74.157 60.3C75.2023 60.86 76.299 61.14 77.447 61.14C78.6603 61.14 79.603 60.8693 80.275 60.328C80.9563 59.7867 81.297 59.0307 81.297 58.06C81.297 56.6227 80.4803 55.7873 78.847 55.554V55.526C79.631 55.33 80.2003 55.0313 80.555 54.63C80.9096 54.2193 81.087 53.6827 81.087 53.02C81.087 52.292 80.7883 51.7133 80.191 51.284C79.603 50.8547 78.7816 50.64 77.727 50.64C76.6163 50.64 75.5196 50.92 74.437 51.48L74.857 52.684C75.8556 52.1613 76.7423 51.9 77.517 51.9C78.889 51.9 79.575 52.3667 79.575 53.3C79.575 54.42 78.5623 54.98 76.537 54.98H75.837V56.24H76.537C77.6943 56.24 78.5203 56.3847 79.015 56.674C79.5096 56.9633 79.757 57.402 79.757 57.99C79.757 58.5967 79.5516 59.0633 79.141 59.39ZM84.9244 52.992C85.6151 52.264 86.5251 51.9 87.6544 51.9C88.5597 51.9 89.4231 52.1567 90.2444 52.67L90.7344 51.522C89.8011 50.934 88.7277 50.64 87.5144 50.64C85.9277 50.64 84.6677 51.116 83.7344 52.068C82.8011 53.0107 82.3344 54.2847 82.3344 55.89C82.3344 57.4953 82.8057 58.774 83.7484 59.726C84.7004 60.6687 85.9557 61.14 87.5144 61.14C88.7277 61.14 89.8011 60.846 90.7344 60.258L90.2444 59.11C89.4231 59.6233 88.5597 59.88 87.6544 59.88C86.5531 59.88 85.6524 59.5207 84.9524 58.802C84.2524 58.074 83.9024 57.1033 83.9024 55.89C83.9024 54.686 84.2431 53.72 84.9244 52.992ZM94.2935 54.952V52.04H98.9135V50.78H92.7534V61H98.9135V59.74H94.2935V56.156H98.6335V54.952H94.2935ZM102.606 61V57.15C103.138 57.1967 103.651 57.22 104.146 57.22C106.759 57.22 108.066 56.0767 108.066 53.79C108.066 52.782 107.735 52.0073 107.072 51.466C106.409 50.9153 105.434 50.64 104.146 50.64C103.063 50.64 102.037 50.71 101.066 50.85V61H102.606ZM104.006 56.016C103.539 56.016 103.073 55.9787 102.606 55.904V51.97C103.007 51.9047 103.474 51.872 104.006 51.872C104.846 51.872 105.481 52.0493 105.91 52.404C106.339 52.7493 106.554 53.258 106.554 53.93C106.554 54.602 106.335 55.12 105.896 55.484C105.457 55.8387 104.827 56.016 104.006 56.016ZM111.766 54.952H111.206V51.97C111.532 51.9047 111.906 51.872 112.326 51.872C113.156 51.872 113.754 51.9933 114.118 52.236C114.482 52.4787 114.664 52.8567 114.664 53.37C114.664 53.902 114.435 54.2987 113.978 54.56C113.53 54.8213 112.792 54.952 111.766 54.952ZM111.206 59.81V56.156H111.766C112.951 56.156 113.786 56.296 114.272 56.576C114.766 56.856 115.014 57.304 115.014 57.92C115.014 58.592 114.808 59.0913 114.398 59.418C113.987 59.7447 113.343 59.908 112.466 59.908C111.99 59.908 111.57 59.8753 111.206 59.81ZM112.466 61.14C115.172 61.14 116.526 60.1133 116.526 58.06C116.526 57.3787 116.302 56.8093 115.854 56.352C115.406 55.8947 114.79 55.6053 114.006 55.484V55.456C114.64 55.3347 115.149 55.064 115.532 54.644C115.914 54.2147 116.106 53.72 116.106 53.16C116.106 51.48 114.846 50.64 112.326 50.64C111.374 50.64 110.487 50.71 109.666 50.85V60.93C110.534 61.07 111.467 61.14 112.466 61.14ZM124.525 61H126.037V50.78H124.525L119.737 58.41H119.709V50.78H118.197V61H119.709L124.497 53.37H124.525V61ZM130.288 52.992C130.978 52.264 131.888 51.9 133.018 51.9C133.923 51.9 134.786 52.1567 135.608 52.67L136.098 51.522C135.164 50.934 134.091 50.64 132.878 50.64C131.291 50.64 130.031 51.116 129.098 52.068C128.164 53.0107 127.698 54.2847 127.698 55.89C127.698 57.4953 128.169 58.774 129.112 59.726C130.064 60.6687 131.319 61.14 132.878 61.14C134.091 61.14 135.164 60.846 136.098 60.258L135.608 59.11C134.786 59.6233 133.923 59.88 133.018 59.88C131.916 59.88 131.016 59.5207 130.316 58.802C129.616 58.074 129.266 57.1033 129.266 55.89C129.266 54.686 129.606 53.72 130.288 52.992Z" fill="white"/>
</svg>
